<svg xmlns="http://www.w3.org/2000/svg" xmlns:xlink="http://www.w3.org/1999/xlink" width="1000" zoomAndPan="magnify" viewBox="0 0 750 749.999995" height="1000" preserveAspectRatio="xMidYMid meet" version="1.0"><defs><g><g id="id1"/><g id="id2"/></g><clipPath id="id3"><path d="M 130.082031 200.390625 L 187.082031 200.390625 L 187.082031 281.390625 L 130.082031 281.390625 Z M 130.082031 200.390625 " clip-rule="nonzero"/></clipPath><clipPath id="id4"><path d="M 243.714844 30.898438 L 300.714844 30.898438 L 300.714844 111.898438 L 243.714844 111.898438 Z M 243.714844 30.898438 " clip-rule="nonzero"/></clipPath><clipPath id="id5"><path d="M 168.921875 109.570312 L 272 109.570312 L 272 282 L 168.921875 282 Z M 168.921875 109.570312 " clip-rule="nonzero"/></clipPath></defs><rect x="-75" width="900" fill="rgb(100%, 100%, 100%)" y="-74.999999" height="899.999994" fill-opacity="1"/><rect x="-75" width="900" fill="rgb(100%, 100%, 100%)" y="-74.999999" height="899.999994" fill-opacity="1"/><rect x="-75" width="900" fill="rgb(100%, 100%, 100%)" y="-74.999999" height="899.999994" fill-opacity="1"/><g fill="rgb(0%, 0%, 0%)" fill-opacity="1"><g transform="translate(202.467355, 480.782224)"><g><path d="M 209.953125 -322.78125 C 209.953125 -322.78125 163.972656 -322.78125 72.015625 -322.78125 C 72.015625 -322.78125 72.015625 -215.1875 72.015625 0 C 72.015625 0 60.207031 0 36.59375 0 C 36.59375 0 36.59375 -118.304688 36.59375 -354.921875 C 36.59375 -354.921875 94.378906 -354.921875 209.953125 -354.921875 C 209.953125 -354.921875 209.953125 -344.207031 209.953125 -322.78125 Z M 209.953125 -322.78125 "/></g></g></g><g fill="rgb(0%, 0%, 0%)" fill-opacity="1"><g transform="translate(97.859515, 648.243152)"><g><path d="M 209.953125 -322.78125 C 209.953125 -322.78125 163.972656 -322.78125 72.015625 -322.78125 C 72.015625 -322.78125 72.015625 -215.1875 72.015625 0 C 72.015625 0 60.207031 0 36.59375 0 C 36.59375 0 36.59375 -118.304688 36.59375 -354.921875 C 36.59375 -354.921875 94.378906 -354.921875 209.953125 -354.921875 C 209.953125 -354.921875 209.953125 -344.207031 209.953125 -322.78125 Z M 209.953125 -322.78125 "/></g></g></g><g clip-path="url(#id3)"><path fill="rgb(0%, 0%, 0%)" d="M 158.582031 200.390625 C 142.847656 200.390625 130.082031 213.085938 130.082031 228.738281 C 130.082031 250.003906 158.582031 281.390625 158.582031 281.390625 C 158.582031 281.390625 187.078125 250.003906 187.078125 228.738281 C 187.078125 213.085938 174.316406 200.390625 158.582031 200.390625 Z M 158.582031 238.863281 C 152.960938 238.863281 148.402344 234.328125 148.402344 228.738281 C 148.402344 223.152344 152.960938 218.613281 158.582031 218.613281 C 164.199219 218.613281 168.757812 223.152344 168.757812 228.738281 C 168.757812 234.328125 164.199219 238.863281 158.582031 238.863281 Z M 158.582031 238.863281 " fill-opacity="1" fill-rule="nonzero"/></g><g clip-path="url(#id4)"><path fill="rgb(0%, 0%, 0%)" d="M 272.214844 30.898438 C 256.480469 30.898438 243.71875 43.59375 243.71875 59.25 C 243.71875 80.511719 272.214844 111.898438 272.214844 111.898438 C 272.214844 111.898438 300.710938 80.511719 300.710938 59.25 C 300.710938 43.59375 287.949219 30.898438 272.214844 30.898438 Z M 272.214844 69.375 C 266.597656 69.375 262.039062 64.835938 262.039062 59.25 C 262.039062 53.660156 266.597656 49.125 272.214844 49.125 C 277.832031 49.125 282.394531 53.660156 282.394531 59.25 C 282.394531 64.835938 277.832031 69.375 272.214844 69.375 Z M 272.214844 69.375 " fill-opacity="1" fill-rule="nonzero"/></g><g clip-path="url(#id5)"><path fill="rgb(0%, 0%, 0%)" d="M 168.609375 281.894531 C 172.222656 281.921875 175.28125 280.328125 178.265625 278.550781 C 178.78125 278.246094 178.914062 277.648438 178.574219 277.121094 C 178.179688 276.507812 177.542969 276.582031 177.011719 276.878906 C 175.558594 277.691406 174.085938 278.445312 172.519531 279.03125 C 171.25 279.507812 169.960938 279.871094 168.609375 280.003906 C 168.609375 280.632812 168.609375 281.265625 168.609375 281.894531 Z M 256.171875 110.054688 C 260.894531 110.617188 265.304688 112.351562 269.796875 113.769531 C 270.65625 114.039062 272.128906 114.105469 271.65625 115.503906 C 271.214844 116.804688 269.988281 116.121094 269.101562 115.839844 C 264.441406 114.351562 259.890625 112.492188 254.96875 111.949219 C 254.371094 111.882812 253.742188 111.6875 253.835938 110.902344 C 253.929688 110.117188 254.546875 109.945312 255.335938 109.945312 C 255.546875 109.972656 255.859375 110.015625 256.171875 110.054688 Z M 246.6875 110.507812 C 247.351562 110.601562 248.023438 110.722656 248.59375 111.128906 C 249.167969 111.535156 249.484375 112.070312 249.152344 112.75 C 248.847656 113.367188 248.242188 113.28125 247.726562 113.097656 C 245.710938 112.367188 243.589844 112.296875 241.492188 112.0625 C 238.253906 111.707031 235.027344 111.871094 231.800781 112.222656 C 231.054688 112.304688 230.375 112.105469 230.339844 111.230469 C 230.308594 110.429688 230.917969 110.246094 231.625 110.1875 C 233.777344 110.011719 235.921875 109.714844 237.988281 109.847656 C 240.980469 109.734375 243.835938 110.097656 246.6875 110.507812 Z M 199.433594 128.492188 C 199.5 129.34375 198.878906 129.53125 198.191406 129.558594 C 197.628906 129.582031 197.164062 129.855469 196.683594 130.089844 C 193.152344 131.8125 190.144531 134.191406 187.667969 137.238281 C 187.175781 137.84375 186.558594 138.125 185.9375 137.5625 C 185.390625 137.066406 185.523438 136.40625 185.996094 135.875 C 188.921875 132.59375 192.195312 129.757812 196.222656 127.878906 C 196.792969 127.609375 197.367188 127.359375 198.039062 127.328125 C 198.730469 127.417969 199.367188 127.664062 199.433594 128.492188 Z M 177.722656 154.761719 C 177.945312 154.371094 178.234375 153.996094 178.664062 153.824219 C 179.320312 153.566406 179.925781 153.6875 180.300781 154.328125 C 180.671875 154.957031 180.652344 155.546875 179.890625 155.886719 C 179.582031 156.023438 179.359375 156.21875 179.214844 156.503906 C 177.585938 159.679688 176.148438 162.902344 176.601562 166.621094 C 176.671875 167.207031 176.484375 167.714844 175.820312 167.832031 C 175.125 167.957031 174.671875 167.601562 174.558594 166.933594 C 174.460938 166.359375 174.484375 165.769531 174.464844 165.347656 C 174.515625 161.386719 175.894531 158.003906 177.722656 154.761719 Z M 202.539062 261.652344 C 204.570312 260.5625 206.113281 258.949219 207.316406 257.015625 C 208.023438 255.875 208.601562 254.652344 209.242188 253.464844 C 209.605469 252.789062 210.152344 252.378906 210.886719 252.773438 C 211.59375 253.152344 211.453125 253.820312 211.152344 254.425781 C 210.320312 256.121094 209.476562 257.8125 208.3125 259.3125 C 207.0625 260.925781 205.539062 262.257812 203.851562 263.390625 C 202.953125 263.992188 201.96875 263.609375 201.875 262.714844 C 201.839844 262.199219 202.097656 261.886719 202.539062 261.652344 Z M 206.105469 219.109375 C 202.355469 217.710938 199.328125 215.261719 196.535156 212.480469 C 196.121094 212.070312 196.015625 211.5 196.476562 211.027344 C 196.921875 210.574219 197.46875 210.636719 197.953125 210.976562 C 198.355469 211.261719 198.726562 211.59375 199.078125 211.9375 C 201.425781 214.210938 203.96875 216.183594 207.121094 217.230469 C 207.695312 217.421875 207.902344 217.800781 207.820312 218.359375 C 207.71875 219.035156 207.226562 219.199219 206.574219 219.203125 C 206.457031 219.179688 206.273438 219.171875 206.105469 219.109375 Z M 172.957031 175.972656 C 173.394531 175.546875 173.921875 175.460938 174.453125 175.707031 C 174.949219 175.933594 175.035156 176.4375 174.828125 176.863281 C 174.242188 178.050781 174.546875 179.257812 174.726562 180.4375 C 175.078125 182.757812 175.875 184.957031 176.640625 187.167969 C 176.851562 187.765625 177.019531 188.5 176.257812 188.816406 C 175.453125 189.144531 174.996094 188.578125 174.738281 187.886719 C 173.566406 184.71875 172.46875 181.53125 172.332031 177.890625 C 172.359375 177.34375 172.34375 176.566406 172.957031 175.972656 Z M 186.3125 275.820312 C 186.214844 275.203125 186.539062 274.738281 187.15625 274.644531 C 188.820312 274.390625 190.007812 273.359375 191.121094 272.234375 C 192.480469 270.855469 193.773438 269.414062 195.109375 268.011719 C 195.550781 267.546875 196.128906 267.308594 196.671875 267.753906 C 197.269531 268.246094 197.15625 268.914062 196.683594 269.429688 C 194.738281 271.550781 192.898438 273.785156 190.519531 275.464844 C 189.625 276.097656 188.628906 276.5 187.476562 276.648438 C 186.960938 276.617188 186.421875 276.476562 186.3125 275.820312 Z M 212.945312 242.390625 C 212.863281 243.292969 212.394531 243.886719 211.441406 243.660156 C 210.523438 243.441406 210.667969 242.820312 210.804688 241.976562 C 211.351562 238.601562 211.675781 235.191406 210.761719 231.816406 C 210.601562 231.21875 210.566406 230.726562 211.101562 230.390625 C 211.632812 230.0625 212.140625 230.253906 212.578125 230.65625 C 212.972656 231.019531 213.027344 231.535156 213.117188 232.011719 C 213.390625 233.484375 213.289062 234.976562 213.3125 236.878906 C 213.40625 238.449219 213.125 240.417969 212.945312 242.390625 Z M 213.058594 113.703125 C 213.644531 113.832031 214.039062 114.191406 214.015625 114.824219 C 213.992188 115.535156 213.464844 115.683594 212.882812 115.703125 C 209.722656 115.804688 206.765625 116.617188 204.046875 118.25 C 203.816406 118.390625 203.570312 118.511719 203.316406 118.589844 C 202.753906 118.761719 202.203125 118.722656 201.941406 118.109375 C 201.695312 117.53125 201.929688 117.0625 202.464844 116.742188 C 205.402344 114.984375 208.550781 113.859375 212.101562 113.59375 C 212.34375 113.621094 212.710938 113.625 213.058594 113.703125 Z M 186.621094 205.585938 C 184.066406 203.894531 182.59375 201.28125 180.941406 198.828125 C 180.699219 198.46875 180.726562 198.035156 181.066406 197.71875 C 181.484375 197.328125 181.976562 197.363281 182.4375 197.617188 C 182.929688 197.886719 183.15625 198.40625 183.480469 198.832031 C 184.894531 200.695312 185.8125 203.019531 188.28125 203.914062 C 188.75 204.082031 188.71875 204.664062 188.589844 205.113281 C 188.4375 205.648438 188.058594 205.929688 187.351562 205.917969 C 187.183594 205.84375 186.875 205.753906 186.621094 205.585938 Z M 186.621094 205.585938 " fill-opacity="1" fill-rule="nonzero"/></g><g fill="rgb(0%, 0%, 0%)" fill-opacity="1"><g transform="translate(171.92349, 647.855388)"><g><path d="M 84.96875 -108.484375 C 84.96875 -108.484375 93.765625 -108.484375 111.359375 -108.484375 C 111.359375 -108.484375 111.359375 -72.320312 111.359375 0 C 111.359375 0 102.753906 0 85.546875 0 C 85.546875 0 85.546875 -23.894531 85.546875 -71.6875 C 85.546875 -71.6875 69.359375 -47.789062 36.984375 0 C 36.984375 0 28.191406 0 10.609375 0 C 10.609375 0 10.609375 -36.160156 10.609375 -108.484375 C 10.609375 -108.484375 19.210938 -108.484375 36.421875 -108.484375 C 36.421875 -108.484375 36.421875 -84.585938 36.421875 -36.796875 C 36.421875 -36.796875 52.601562 -60.691406 84.96875 -108.484375 Z M 84.96875 -108.484375 "/></g></g></g><g fill="rgb(0%, 0%, 0%)" fill-opacity="1"><g transform="translate(284.001232, 647.855388)"><g><path d="M 130.375 25.8125 C 130.375 25.8125 124.160156 25.8125 111.734375 25.8125 C 111.734375 25.8125 109.914062 17.207031 106.28125 0 C 106.28125 0 79.582031 0 26.1875 0 C 26.1875 0 24.367188 8.601562 20.734375 25.8125 C 20.734375 25.8125 14.457031 25.8125 1.90625 25.8125 C 1.90625 25.8125 1.90625 9.304688 1.90625 -23.703125 C 1.90625 -23.703125 7.484375 -23.703125 18.640625 -23.703125 C 18.640625 -23.703125 30.679688 -51.960938 54.765625 -108.484375 C 54.765625 -108.484375 62.347656 -108.484375 77.515625 -108.484375 C 77.515625 -108.484375 89.585938 -80.222656 113.734375 -23.703125 C 113.734375 -23.703125 119.28125 -23.703125 130.375 -23.703125 C 130.375 -23.703125 130.375 -7.195312 130.375 25.8125 Z M 86.6875 -23.703125 C 86.6875 -23.703125 79.835938 -40.015625 66.140625 -72.640625 C 66.140625 -72.640625 59.289062 -56.328125 45.59375 -23.703125 C 45.59375 -23.703125 59.289062 -23.703125 86.6875 -23.703125 Z M 86.6875 -23.703125 "/></g></g></g><g fill="rgb(0%, 0%, 0%)" fill-opacity="1"><g transform="translate(275.275127, 477.894138)"><g><path d="M 10.609375 36.21875 C 10.609375 36.21875 10.609375 -12.015625 10.609375 -108.484375 C 10.609375 -108.484375 18.539062 -108.484375 34.40625 -108.484375 C 34.40625 -108.484375 34.40625 -104.210938 34.40625 -95.671875 C 43.007812 -105.867188 54.894531 -110.96875 70.0625 -110.96875 C 80.382812 -110.96875 89.65625 -108.5625 97.875 -103.75 C 106.09375 -98.9375 112.507812 -92.226562 117.125 -83.625 C 121.75 -75.03125 124.0625 -65.347656 124.0625 -54.578125 C 124.0625 -43.742188 121.734375 -33.976562 117.078125 -25.28125 C 112.429688 -16.582031 105.984375 -9.765625 97.734375 -4.828125 C 89.484375 0.109375 80.195312 2.578125 69.875 2.578125 C 63.238281 2.578125 57.273438 1.5625 51.984375 -0.46875 C 46.703125 -2.507812 41.578125 -5.726562 36.609375 -10.125 L 36.609375 36.21875 Z M 66.140625 -87.078125 C 57.347656 -87.078125 49.972656 -83.90625 44.015625 -77.5625 C 38.054688 -71.21875 35.078125 -63.300781 35.078125 -53.8125 C 35.078125 -44.570312 38.132812 -36.84375 44.25 -30.625 C 50.375 -24.414062 57.925781 -21.3125 66.90625 -21.3125 C 75.632812 -21.3125 82.976562 -24.445312 88.9375 -30.71875 C 94.894531 -37 97.875 -44.757812 97.875 -54 C 97.875 -63.5625 94.878906 -71.460938 88.890625 -77.703125 C 82.898438 -83.953125 75.316406 -87.078125 66.140625 -87.078125 Z M 66.140625 -87.078125 "/></g></g></g><g fill="rgb(0%, 0%, 0%)" fill-opacity="1"><g transform="translate(394.998746, 477.894138)"><g><path d="M 119.953125 -108.484375 C 119.953125 -108.484375 119.953125 -72.320312 119.953125 0 C 119.953125 0 112.019531 0 96.15625 0 C 96.15625 0 96.15625 -4.679688 96.15625 -14.046875 C 90.925781 -8.117188 85.523438 -3.863281 79.953125 -1.28125 C 74.378906 1.289062 67.769531 2.578125 60.125 2.578125 C 49.664062 2.578125 40.28125 0.171875 31.96875 -4.640625 C 23.65625 -9.453125 17.15625 -16.15625 12.46875 -24.75 C 7.789062 -33.351562 5.453125 -43.039062 5.453125 -53.8125 C 5.453125 -64.707031 7.804688 -74.503906 12.515625 -83.203125 C 17.234375 -91.898438 23.796875 -98.703125 32.203125 -103.609375 C 40.617188 -108.515625 50.113281 -110.96875 60.6875 -110.96875 C 68.53125 -110.96875 75.285156 -109.613281 80.953125 -106.90625 C 86.628906 -104.195312 91.695312 -99.878906 96.15625 -93.953125 L 96.15625 -108.484375 Z M 62.984375 -87.078125 C 53.941406 -87.078125 46.472656 -83.890625 40.578125 -77.515625 C 34.679688 -71.140625 31.734375 -63.046875 31.734375 -53.234375 C 31.734375 -43.742188 34.710938 -36.050781 40.671875 -30.15625 C 46.628906 -24.257812 54.351562 -21.3125 63.84375 -21.3125 C 73.28125 -21.3125 80.878906 -24.304688 86.640625 -30.296875 C 92.410156 -36.285156 95.296875 -44.125 95.296875 -53.8125 C 95.296875 -63.625 92.285156 -71.617188 86.265625 -77.796875 C 80.242188 -83.984375 72.484375 -87.078125 62.984375 -87.078125 Z M 62.984375 -87.078125 "/></g></g></g><g fill="rgb(0%, 0%, 0%)" fill-opacity="1"><g transform="translate(515.773757, 477.894138)"><g><path d="M 130.375 25.8125 C 130.375 25.8125 124.160156 25.8125 111.734375 25.8125 C 111.734375 25.8125 109.914062 17.207031 106.28125 0 C 106.28125 0 79.582031 0 26.1875 0 C 26.1875 0 24.367188 8.601562 20.734375 25.8125 C 20.734375 25.8125 14.457031 25.8125 1.90625 25.8125 C 1.90625 25.8125 1.90625 9.304688 1.90625 -23.703125 C 1.90625 -23.703125 7.484375 -23.703125 18.640625 -23.703125 C 18.640625 -23.703125 30.679688 -51.960938 54.765625 -108.484375 C 54.765625 -108.484375 62.347656 -108.484375 77.515625 -108.484375 C 77.515625 -108.484375 89.585938 -80.222656 113.734375 -23.703125 C 113.734375 -23.703125 119.28125 -23.703125 130.375 -23.703125 C 130.375 -23.703125 130.375 -7.195312 130.375 25.8125 Z M 86.6875 -23.703125 C 86.6875 -23.703125 79.835938 -40.015625 66.140625 -72.640625 C 66.140625 -72.640625 59.289062 -56.328125 45.59375 -23.703125 C 45.59375 -23.703125 59.289062 -23.703125 86.6875 -23.703125 Z M 86.6875 -23.703125 "/></g></g></g></svg>